<?xml version="1.0" standalone="no"?>
<!DOCTYPE svg PUBLIC "-//W3C//DTD SVG 20010904//EN"
 "http://www.w3.org/TR/2001/REC-SVG-20010904/DTD/svg10.dtd">
<svg version="1.0" xmlns="http://www.w3.org/2000/svg"
 width="640.000000pt" height="640.000000pt" viewBox="0 0 640.000000 640.000000"
 preserveAspectRatio="xMidYMid meet">
<metadata>
Created by potrace 1.11, written by Peter Selinger 2001-2013
</metadata>
<g transform="translate(0.000000,640.000000) scale(0.100000,-0.100000)"
fill="#000000" stroke="none">
<path d="M2805 5318 c-407 -41 -856 -225 -1165 -478 -410 -335 -674 -814 -729
-1322 -14 -125 -14 -511 0 -636 48 -448 264 -884 595 -1203 347 -334 824 -550
1318 -598 141 -14 531 -14 672 0 519 50 1026 291 1370 650 122 128 256 309
259 350 1 13 -2 16 -10 9 -7 -6 -11 -3 -11 9 0 10 6 17 12 14 7 -2 15 0 19 6
3 6 -2 11 -12 12 -13 1 -11 3 7 9 14 4 19 8 11 9 -10 1 -11 4 -2 15 8 9 8 16
2 20 -6 4 -8 13 -4 21 3 11 1 13 -10 9 -12 -4 -15 0 -11 18 2 13 2 18 -2 11
-4 -9 -13 -5 -28 12 -13 14 -26 22 -29 18 -4 -3 -7 2 -7 13 0 14 -2 16 -9 6
-7 -11 -9 -11 -14 1 -4 10 -22 14 -67 14 -51 0 -64 -4 -67 -18 -4 -13 -12 -16
-31 -13 -19 3 -23 2 -13 -5 10 -7 11 -12 3 -22 -7 -8 -39 -51 -73 -97 -335
-454 -918 -773 -1516 -831 -262 -25 -654 63 -970 219 -575 281 -975 778 -1107
1371 -51 231 -51 347 0 578 112 501 417 938 864 1234 357 237 874 388 1213
356 644 -63 1239 -410 1586 -928 94 -140 143 -235 128 -250 -9 -10 -9 -12 3
-9 8 2 14 -3 12 -9 -1 -7 3 -13 9 -13 5 0 7 -5 4 -10 -4 -6 -3 -10 2 -9 22 4
34 -2 27 -13 -5 -8 0 -7 11 2 10 8 16 10 12 3 -4 -6 -2 -15 5 -20 19 -11 39
-13 32 -1 -3 5 3 4 15 -4 12 -7 21 -17 21 -23 0 -5 5 -3 10 5 5 8 10 10 10 4
0 -7 7 -14 14 -17 11 -4 13 -1 9 11 -5 14 -3 15 8 5 7 -7 18 -13 23 -13 6 0 4
5 -4 11 -12 9 -11 10 8 6 12 -3 20 -1 16 4 -3 5 1 9 8 9 7 0 19 9 26 21 8 12
9 19 4 15 -5 -3 -9 1 -9 8 0 9 8 11 21 8 21 -6 21 -5 2 14 -19 18 -19 19 -1
23 15 2 15 5 4 13 -11 8 -11 11 -1 15 10 4 9 8 -5 19 -17 13 -17 13 0 14 10 0
15 5 12 10 -4 6 -12 7 -18 4 -9 -5 -9 -4 0 6 6 7 9 19 6 28 -5 10 -2 13 6 8 9
-6 10 -4 3 10 -6 11 -33 66 -60 124 -90 189 -249 408 -408 561 -347 334 -824
550 -1318 598 -129 13 -562 12 -691 -1z"/>
<path d="M2151 4538 c0 -9 -6 -20 -13 -24 -6 -4 -8 -3 -5 3 4 6 0 14 -9 17
-18 7 -77 -40 -170 -136 -206 -212 -339 -470 -401 -783 -26 -132 -26 -639 0
-770 38 -188 99 -353 182 -494 225 -382 588 -638 1030 -728 132 -27 648 -27
780 0 442 90 805 346 1030 728 83 141 144 306 182 494 26 131 26 638 0 770
-63 316 -196 574 -405 787 -57 58 -70 67 -94 63 -22 -4 -28 -1 -28 12 0 15 -2
16 -10 3 -8 -12 -10 -12 -10 -1 0 8 -3 11 -7 8 -3 -4 -15 1 -26 10 -11 10 -17
12 -13 6 5 -9 0 -13 -13 -13 -12 0 -21 -4 -21 -9 0 -5 -14 -12 -30 -16 -17 -4
-27 -11 -24 -16 3 -6 12 -5 22 3 15 12 16 11 3 -5 -8 -10 -20 -16 -28 -13 -11
5 -11 1 -2 -15 6 -12 7 -19 1 -15 -5 3 -13 -2 -17 -11 -3 -10 -1 -19 5 -21 8
-3 7 -8 -1 -19 -10 -12 -10 -16 2 -24 12 -7 12 -9 -1 -9 -13 0 -13 -1 0 -10
13 -9 7 -14 -12 -11 -4 0 -5 -6 -2 -14 4 -8 11 -12 18 -8 6 4 6 0 -2 -9 -8
-10 -10 -26 -6 -44 5 -21 4 -25 -6 -19 -9 5 -11 4 -6 -4 4 -6 10 -10 14 -7 4
2 16 -6 27 -17 12 -11 14 -17 5 -13 -8 4 -7 1 3 -7 10 -8 29 -14 42 -12 14 1
22 -2 19 -6 -3 -5 24 -47 60 -93 155 -198 254 -417 300 -665 34 -180 9 -352
-85 -596 -155 -400 -512 -735 -928 -869 -270 -87 -422 -87 -692 0 -345 111
-644 353 -834 675 -112 189 -195 462 -195 639 0 174 83 449 191 634 41 71 177
258 191 264 5 2 8 8 8 13 0 6 -6 7 -12 3 -9 -5 -9 -3 1 9 7 9 17 15 21 12 5
-3 12 0 16 6 4 8 3 9 -4 5 -7 -4 -12 -2 -12 3 0 6 5 11 12 11 6 0 8 3 5 7 -4
3 0 17 8 30 9 13 13 28 10 32 -3 5 5 7 17 4 19 -4 20 -3 8 6 -13 9 -8 15 11
13 3 -1 5 9 5 21 -1 13 4 21 12 19 8 -1 11 2 7 8 -3 6 -10 8 -14 6 -4 -3 -8 1
-8 8 0 8 6 12 13 9 8 -3 11 2 7 15 -2 11 0 29 6 40 8 15 8 23 -1 28 -6 4 -8 3
-4 -4 3 -6 2 -13 -3 -16 -5 -4 -7 7 -4 25 3 22 1 29 -7 24 -9 -5 -9 -2 -2 11
7 14 6 22 -3 31 -7 6 -16 9 -19 6 -3 -4 -6 -1 -6 6 0 8 -8 11 -20 8 -14 -4
-20 0 -20 11 -1 15 -2 15 -14 -1 -14 -18 -14 -18 -19 0 -4 15 -5 16 -6 1z"/>
<path d="M4246 4482 c-3 -5 1 -9 9 -9 8 0 15 4 15 9 0 4 -4 8 -9 8 -6 0 -12
-4 -15 -8z"/>
<path d="M2863 4306 c-401 -76 -706 -391 -778 -805 -20 -114 -20 -458 0 -572
67 -387 338 -688 710 -791 74 -20 102 -22 350 -22 247 0 277 2 348 22 91 25
197 70 197 84 0 5 4 7 8 4 10 -6 9 24 -1 40 -4 7 3 10 19 8 22 -2 23 0 12 14
-11 13 -11 14 1 7 11 -6 13 -4 7 10 -5 14 -4 15 6 7 10 -8 13 0 12 36 -1 26 4
50 10 54 7 5 7 8 -2 8 -7 0 -10 4 -7 10 4 6 -1 7 -12 3 -15 -5 -16 -4 -7 8 9
11 9 17 -1 26 -7 6 -16 9 -19 6 -3 -4 -6 5 -7 18 0 22 -1 23 -9 4 -7 -17 -9
-17 -9 -2 -1 9 -7 16 -13 15 -7 -2 -12 3 -10 10 1 8 -2 11 -8 7 -6 -3 -7 -12
-3 -18 4 -7 0 -6 -10 2 -14 11 -20 11 -34 0 -15 -11 -16 -11 -5 1 19 22 14 32
-10 19 -22 -12 -22 -11 -8 7 11 13 3 11 -30 -9 -140 -86 -328 -157 -415 -157
-89 0 -292 76 -403 151 -181 123 -314 304 -388 529 -39 119 -39 231 0 350 74
225 207 406 388 529 111 75 314 151 403 151 83 0 258 -64 404 -150 25 -14 38
-17 47 -9 7 6 18 8 24 4 6 -4 18 -1 27 7 12 9 15 9 9 0 -5 -8 -1 -11 13 -9 11
2 24 6 27 10 4 4 14 1 23 -5 12 -9 11 -7 -2 8 -17 21 -17 21 8 19 22 -3 24 -1
14 17 -8 14 -8 23 0 31 7 7 7 15 -1 26 -10 13 -10 14 2 4 19 -18 35 -16 21 1
-9 11 -9 15 1 19 11 4 10 6 0 6 -8 1 -10 6 -6 13 12 19 12 48 1 55 -6 4 -7 1
-2 -7 5 -8 4 -11 -2 -7 -5 3 -8 20 -5 37 4 26 1 30 -19 31 -13 0 -18 3 -11 6
14 6 16 29 2 38 -6 3 -7 -1 -4 -9 3 -9 1 -16 -5 -16 -6 0 -11 5 -11 10 0 6
-12 10 -26 10 -14 0 -23 4 -19 10 8 13 -63 45 -162 72 -67 18 -111 21 -318 24
-171 2 -261 -1 -312 -10z m892 -226 c3 -5 1 -10 -4 -10 -6 0 -11 5 -11 10 0 6
2 10 4 10 3 0 8 -4 11 -10z m-165 -160 c0 -5 -2 -10 -4 -10 -3 0 -8 5 -11 10
-3 6 -1 10 4 10 6 0 11 -4 11 -10z"/>
<path d="M2216 4228 c-15 -22 -12 -43 5 -32 5 3 7 10 3 15 -3 5 0 16 6 24 7 8
10 15 7 15 -3 0 -13 -10 -21 -22z"/>
<path d="M3740 3980 c0 -5 7 -7 15 -4 8 4 15 8 15 10 0 2 -7 4 -15 4 -8 0 -15
-4 -15 -10z"/>
<path d="M2886 3834 c-183 -44 -337 -202 -375 -382 -14 -69 -14 -365 0 -434
38 -183 193 -338 380 -383 45 -10 118 -15 244 -15 126 0 199 5 244 15 191 45
345 203 381 391 16 81 10 436 -7 441 -7 3 -10 10 -7 18 3 8 -9 44 -26 81 -61
127 -198 235 -341 269 -85 20 -409 19 -493 -1z m379 -287 c117 -62 245 -225
245 -312 0 -50 -59 -154 -125 -220 -72 -72 -190 -137 -250 -137 -60 0 -178 65
-250 137 -66 66 -125 170 -125 220 0 80 118 239 225 301 120 70 164 71 280 11z"/>
<path d="M5181 3223 c7 -12 15 -20 18 -17 3 2 -3 12 -13 22 -17 16 -18 16 -5
-5z"/>
<path d="M5156 2993 c-6 -14 -5 -15 5 -6 7 7 10 15 7 18 -3 3 -9 -2 -12 -12z"/>
<path d="M3896 2462 c-3 -4 4 -9 15 -9 23 -2 25 3 4 10 -8 4 -16 3 -19 -1z"/>
</g>
</svg>
